<mxfile host="app.diagrams.net" agent="Mozilla/5.0 (Windows NT 10.0; Win64; x64) AppleWebKit/537.36 (KHTML, like Gecko) Chrome/130.0.0.0 Safari/537.36" version="24.8.2">
  <diagram name="Page-1" id="PsVUVj_vMOhnz3THsT_R">
    <mxGraphModel dx="1434" dy="780" grid="1" gridSize="10" guides="1" tooltips="1" connect="1" arrows="1" fold="1" page="1" pageScale="1" pageWidth="827" pageHeight="1169" math="0" shadow="0">
      <root>
        <mxCell id="0" />
        <mxCell id="1" parent="0" />
        <mxCell id="R6qZ8VITsbT6s0D3TULc-1" value="User" style="shape=umlActor;verticalLabelPosition=bottom;verticalAlign=top;html=1;outlineConnect=0;fillColor=default;" parent="1" vertex="1">
          <mxGeometry x="80" y="520" width="80" height="120" as="geometry" />
        </mxCell>
        <mxCell id="R6qZ8VITsbT6s0D3TULc-2" value="Admin" style="shape=umlActor;verticalLabelPosition=bottom;verticalAlign=top;html=1;outlineConnect=0;" parent="1" vertex="1">
          <mxGeometry x="680" y="520" width="80" height="120" as="geometry" />
        </mxCell>
        <mxCell id="R6qZ8VITsbT6s0D3TULc-3" value="create table" style="ellipse;whiteSpace=wrap;html=1;align=center;" parent="1" vertex="1">
          <mxGeometry x="361" y="170" width="120" height="60" as="geometry" />
        </mxCell>
        <mxCell id="R6qZ8VITsbT6s0D3TULc-4" value="delete table" style="ellipse;whiteSpace=wrap;html=1;align=center;" parent="1" vertex="1">
          <mxGeometry x="362" y="250" width="120" height="60" as="geometry" />
        </mxCell>
        <mxCell id="R6qZ8VITsbT6s0D3TULc-5" value="update table" style="ellipse;whiteSpace=wrap;html=1;align=center;" parent="1" vertex="1">
          <mxGeometry x="362" y="332" width="120" height="60" as="geometry" />
        </mxCell>
        <mxCell id="R6qZ8VITsbT6s0D3TULc-6" value="add data" style="ellipse;whiteSpace=wrap;html=1;align=center;" parent="1" vertex="1">
          <mxGeometry x="362" y="410" width="120" height="60" as="geometry" />
        </mxCell>
        <mxCell id="R6qZ8VITsbT6s0D3TULc-7" value="edit data" style="ellipse;whiteSpace=wrap;html=1;align=center;" parent="1" vertex="1">
          <mxGeometry x="360" y="490" width="120" height="60" as="geometry" />
        </mxCell>
        <mxCell id="R6qZ8VITsbT6s0D3TULc-14" value="remove data" style="ellipse;whiteSpace=wrap;html=1;align=center;" parent="1" vertex="1">
          <mxGeometry x="360" y="570" width="120" height="60" as="geometry" />
        </mxCell>
        <mxCell id="R6qZ8VITsbT6s0D3TULc-15" value="view data" style="ellipse;whiteSpace=wrap;html=1;align=center;" parent="1" vertex="1">
          <mxGeometry x="360" y="648" width="120" height="60" as="geometry" />
        </mxCell>
        <mxCell id="R6qZ8VITsbT6s0D3TULc-16" value="view detailed data" style="ellipse;whiteSpace=wrap;html=1;align=center;" parent="1" vertex="1">
          <mxGeometry x="358" y="728" width="120" height="60" as="geometry" />
        </mxCell>
        <mxCell id="R6qZ8VITsbT6s0D3TULc-22" value="&lt;font style=&quot;font-size: 14px;&quot;&gt;Use Case Diagram - flexibase-db module&lt;/font&gt;" style="text;html=1;align=center;verticalAlign=middle;resizable=0;points=[];autosize=1;strokeColor=none;fillColor=none;" parent="1" vertex="1">
          <mxGeometry x="274" y="970" width="280" height="30" as="geometry" />
        </mxCell>
        <mxCell id="Bei986Sc6P8G4W6gWZzc-1" value="" style="endArrow=classic;html=1;rounded=0;entryX=0;entryY=0.5;entryDx=0;entryDy=0;" edge="1" parent="1" source="R6qZ8VITsbT6s0D3TULc-1" target="R6qZ8VITsbT6s0D3TULc-6">
          <mxGeometry width="50" height="50" relative="1" as="geometry">
            <mxPoint x="390" y="630" as="sourcePoint" />
            <mxPoint x="440" y="580" as="targetPoint" />
          </mxGeometry>
        </mxCell>
        <mxCell id="Bei986Sc6P8G4W6gWZzc-2" value="" style="endArrow=classic;html=1;rounded=0;entryX=0;entryY=0.5;entryDx=0;entryDy=0;" edge="1" parent="1" source="R6qZ8VITsbT6s0D3TULc-1" target="R6qZ8VITsbT6s0D3TULc-7">
          <mxGeometry width="50" height="50" relative="1" as="geometry">
            <mxPoint x="390" y="630" as="sourcePoint" />
            <mxPoint x="440" y="580" as="targetPoint" />
          </mxGeometry>
        </mxCell>
        <mxCell id="Bei986Sc6P8G4W6gWZzc-3" value="" style="endArrow=classic;html=1;rounded=0;" edge="1" parent="1" source="R6qZ8VITsbT6s0D3TULc-1" target="R6qZ8VITsbT6s0D3TULc-14">
          <mxGeometry width="50" height="50" relative="1" as="geometry">
            <mxPoint x="390" y="630" as="sourcePoint" />
            <mxPoint x="440" y="580" as="targetPoint" />
          </mxGeometry>
        </mxCell>
        <mxCell id="Bei986Sc6P8G4W6gWZzc-4" value="" style="endArrow=classic;html=1;rounded=0;entryX=0;entryY=0.5;entryDx=0;entryDy=0;" edge="1" parent="1" source="R6qZ8VITsbT6s0D3TULc-1" target="R6qZ8VITsbT6s0D3TULc-15">
          <mxGeometry width="50" height="50" relative="1" as="geometry">
            <mxPoint x="390" y="630" as="sourcePoint" />
            <mxPoint x="440" y="580" as="targetPoint" />
          </mxGeometry>
        </mxCell>
        <mxCell id="Bei986Sc6P8G4W6gWZzc-5" value="" style="endArrow=classic;html=1;rounded=0;entryX=1;entryY=0.5;entryDx=0;entryDy=0;" edge="1" parent="1" source="R6qZ8VITsbT6s0D3TULc-2" target="R6qZ8VITsbT6s0D3TULc-3">
          <mxGeometry width="50" height="50" relative="1" as="geometry">
            <mxPoint x="640" y="350" as="sourcePoint" />
            <mxPoint x="690" y="300" as="targetPoint" />
          </mxGeometry>
        </mxCell>
        <mxCell id="Bei986Sc6P8G4W6gWZzc-6" value="" style="endArrow=classic;html=1;rounded=0;entryX=1;entryY=0.5;entryDx=0;entryDy=0;" edge="1" parent="1" source="R6qZ8VITsbT6s0D3TULc-2" target="R6qZ8VITsbT6s0D3TULc-4">
          <mxGeometry width="50" height="50" relative="1" as="geometry">
            <mxPoint x="390" y="530" as="sourcePoint" />
            <mxPoint x="440" y="480" as="targetPoint" />
          </mxGeometry>
        </mxCell>
        <mxCell id="Bei986Sc6P8G4W6gWZzc-7" value="" style="endArrow=classic;html=1;rounded=0;entryX=1;entryY=0.5;entryDx=0;entryDy=0;" edge="1" parent="1" source="R6qZ8VITsbT6s0D3TULc-2" target="R6qZ8VITsbT6s0D3TULc-5">
          <mxGeometry width="50" height="50" relative="1" as="geometry">
            <mxPoint x="390" y="530" as="sourcePoint" />
            <mxPoint x="440" y="480" as="targetPoint" />
          </mxGeometry>
        </mxCell>
        <mxCell id="Bei986Sc6P8G4W6gWZzc-8" value="" style="endArrow=classic;html=1;rounded=0;entryX=1;entryY=0.5;entryDx=0;entryDy=0;" edge="1" parent="1" source="R6qZ8VITsbT6s0D3TULc-2" target="R6qZ8VITsbT6s0D3TULc-7">
          <mxGeometry width="50" height="50" relative="1" as="geometry">
            <mxPoint x="390" y="530" as="sourcePoint" />
            <mxPoint x="440" y="480" as="targetPoint" />
          </mxGeometry>
        </mxCell>
        <mxCell id="Bei986Sc6P8G4W6gWZzc-9" value="" style="endArrow=classic;html=1;rounded=0;entryX=1;entryY=0.5;entryDx=0;entryDy=0;" edge="1" parent="1" source="R6qZ8VITsbT6s0D3TULc-2" target="R6qZ8VITsbT6s0D3TULc-14">
          <mxGeometry width="50" height="50" relative="1" as="geometry">
            <mxPoint x="390" y="530" as="sourcePoint" />
            <mxPoint x="440" y="480" as="targetPoint" />
          </mxGeometry>
        </mxCell>
        <mxCell id="Bei986Sc6P8G4W6gWZzc-10" value="" style="endArrow=classic;html=1;rounded=0;entryX=1;entryY=0.5;entryDx=0;entryDy=0;" edge="1" parent="1" source="R6qZ8VITsbT6s0D3TULc-2" target="R6qZ8VITsbT6s0D3TULc-15">
          <mxGeometry width="50" height="50" relative="1" as="geometry">
            <mxPoint x="390" y="530" as="sourcePoint" />
            <mxPoint x="440" y="480" as="targetPoint" />
          </mxGeometry>
        </mxCell>
        <mxCell id="Bei986Sc6P8G4W6gWZzc-11" value="" style="endArrow=classic;html=1;rounded=0;entryX=1;entryY=0.5;entryDx=0;entryDy=0;" edge="1" parent="1" source="R6qZ8VITsbT6s0D3TULc-2" target="R6qZ8VITsbT6s0D3TULc-16">
          <mxGeometry width="50" height="50" relative="1" as="geometry">
            <mxPoint x="390" y="530" as="sourcePoint" />
            <mxPoint x="440" y="480" as="targetPoint" />
          </mxGeometry>
        </mxCell>
      </root>
    </mxGraphModel>
  </diagram>
</mxfile>
